<svg xmlns="http://www.w3.org/2000/svg" xmlns:xlink="http://www.w3.org/1999/xlink" width="2000" zoomAndPan="magnify" viewBox="0 0 1500 1499.999933" height="2000" preserveAspectRatio="xMidYMid meet" version="1.0"><defs><g/><clipPath id="e67bd8a50f"><path d="M 97.757812 97.753906 L 1402.003906 97.753906 L 1402.003906 1402 L 97.757812 1402 Z M 97.757812 97.753906 " clip-rule="nonzero"/></clipPath></defs><rect x="-150" width="1800" fill="#ffffff" y="-149.999993" height="1799.99992" fill-opacity="1"/><rect x="-150" width="1800" fill="#ffffff" y="-149.999993" height="1799.99992" fill-opacity="1"/><g clip-path="url(#e67bd8a50f)"><path fill="#000000" d="M 423.976562 97.597656 C 243.910156 97.597656 97.914062 243.589844 97.914062 423.660156 L 97.914062 1075.785156 C 97.914062 1255.851562 243.910156 1401.847656 423.976562 1401.847656 L 1076.101562 1401.847656 C 1256.171875 1401.847656 1402.164062 1255.851562 1402.164062 1075.785156 L 1402.164062 423.660156 C 1402.164062 243.589844 1256.171875 97.597656 1076.101562 97.597656 Z M 423.976562 97.597656 " fill-opacity="1" fill-rule="nonzero"/></g><g fill="#ffffff" fill-opacity="1"><g transform="translate(150.00002, 1045.063601)"><g><path d="M 52.734375 0 L 52.734375 -545.65625 L 198.484375 -545.65625 L 302.484375 -262.9375 C 306.148438 -252.4375 310.238281 -239.128906 314.75 -223.015625 C 319.269531 -206.910156 323.972656 -189.640625 328.859375 -171.203125 C 333.742188 -152.773438 338.320312 -134.832031 342.59375 -117.375 C 346.863281 -99.914062 350.460938 -84.71875 353.390625 -71.78125 L 332.890625 -71.78125 C 335.816406 -84.476562 339.414062 -99.492188 343.6875 -116.828125 C 347.957031 -134.160156 352.472656 -152.039062 357.234375 -170.46875 C 361.992188 -188.90625 366.691406 -206.238281 371.328125 -222.46875 C 375.972656 -238.707031 380.003906 -252.195312 383.421875 -262.9375 L 486.328125 -545.65625 L 632.078125 -545.65625 L 632.078125 0 L 535.03125 0 L 535.03125 -276.125 C 535.03125 -287.84375 535.210938 -301.941406 535.578125 -318.421875 C 535.953125 -334.898438 536.378906 -352.476562 536.859375 -371.15625 C 537.347656 -389.832031 537.835938 -408.691406 538.328125 -427.734375 C 538.816406 -446.773438 539.0625 -464.84375 539.0625 -481.9375 L 547.125 -481.9375 C 541.988281 -463.132812 536.550781 -443.785156 530.8125 -423.890625 C 525.082031 -403.992188 519.410156 -384.707031 513.796875 -366.03125 C 508.179688 -347.351562 502.867188 -330.257812 497.859375 -314.75 C 492.859375 -299.25 488.648438 -286.375 485.234375 -276.125 L 383.421875 0 L 301.390625 0 L 198.484375 -276.125 C 194.828125 -286.375 190.554688 -299.128906 185.671875 -314.390625 C 180.785156 -329.648438 175.472656 -346.554688 169.734375 -365.109375 C 164.003906 -383.660156 158.207031 -402.945312 152.34375 -422.96875 C 146.488281 -442.988281 140.75 -462.644531 135.125 -481.9375 L 144.65625 -481.9375 C 144.894531 -465.820312 145.257812 -448.300781 145.75 -429.375 C 146.238281 -410.457031 146.664062 -391.597656 147.03125 -372.796875 C 147.394531 -354.003906 147.757812 -336.179688 148.125 -319.328125 C 148.5 -302.484375 148.6875 -288.082031 148.6875 -276.125 L 148.6875 0 Z M 52.734375 0 "/></g></g><g transform="translate(834.814416, 1045.063601)"><g><path d="M 237.3125 0 L 99.25 0 L 99.25 -84.234375 L 232.171875 -84.234375 C 270.753906 -84.234375 302.859375 -91.3125 328.484375 -105.46875 C 354.117188 -119.625 373.34375 -140.738281 386.15625 -168.8125 C 398.976562 -196.894531 405.390625 -231.8125 405.390625 -273.5625 C 405.390625 -314.820312 398.976562 -349.367188 386.15625 -377.203125 C 373.34375 -405.035156 354.363281 -426.03125 329.21875 -440.1875 C 304.070312 -454.34375 272.703125 -461.421875 235.109375 -461.421875 L 96.6875 -461.421875 L 96.6875 -545.65625 L 240.96875 -545.65625 C 295.164062 -545.65625 341.734375 -534.726562 380.671875 -512.875 C 419.617188 -491.03125 449.585938 -459.78125 470.578125 -419.125 C 491.578125 -378.476562 502.078125 -329.957031 502.078125 -273.5625 C 502.078125 -216.675781 491.578125 -167.847656 470.578125 -127.078125 C 449.585938 -86.304688 419.316406 -54.929688 379.765625 -32.953125 C 340.210938 -10.984375 292.726562 0 237.3125 0 Z M 150.515625 -545.65625 L 150.515625 0 L 52.734375 0 L 52.734375 -545.65625 Z M 150.515625 -545.65625 "/></g></g></g></svg>