<svg xmlns="http://www.w3.org/2000/svg" xmlns:xlink="http://www.w3.org/1999/xlink" width="2000" zoomAndPan="magnify" viewBox="0 0 1500 1499.999933" height="2000" preserveAspectRatio="xMidYMid meet" version="1.0"><defs><g/><clipPath id="6661d91a90"><path d="M 55.546875 55.546875 L 1444.546875 55.546875 L 1444.546875 1444.542969 L 55.546875 1444.542969 Z M 55.546875 55.546875 " clip-rule="nonzero"/></clipPath></defs><g clip-path="url(#6661d91a90)"><path fill="#545454" d="M 402.941406 55.375 C 211.183594 55.375 55.714844 210.847656 55.714844 402.601562 L 55.714844 1097.054688 C 55.714844 1288.8125 211.183594 1444.28125 402.941406 1444.28125 L 1097.394531 1444.28125 C 1289.148438 1444.28125 1444.621094 1288.8125 1444.621094 1097.054688 L 1444.621094 402.601562 C 1444.621094 210.847656 1289.148438 55.375 1097.394531 55.375 Z M 402.941406 55.375 " fill-opacity="1" fill-rule="nonzero"/></g><g fill="#ffffff" fill-opacity="1"><g transform="translate(119.141274, 1064.963955)"><g><path d="M 67.53125 0 L 67.53125 -581.6875 L 170.609375 -581.6875 L 315.046875 -212.765625 C 318.429688 -204.179688 322.269531 -193.507812 326.5625 -180.75 C 330.863281 -168 335.484375 -154.335938 340.421875 -139.765625 C 345.367188 -125.191406 350.050781 -110.742188 354.46875 -96.421875 C 358.894531 -82.109375 362.671875 -69.097656 365.796875 -57.390625 L 349.40625 -57.390625 C 352.789062 -68.578125 356.691406 -81.195312 361.109375 -95.25 C 365.535156 -109.3125 370.15625 -123.691406 374.96875 -138.390625 C 379.789062 -153.097656 384.476562 -167.023438 389.03125 -180.171875 C 393.582031 -193.316406 397.550781 -204.179688 400.9375 -212.765625 L 543.046875 -581.6875 L 646.5 -581.6875 L 646.5 0 L 574.265625 0 L 574.265625 -333.390625 C 574.265625 -345.367188 574.328125 -358.96875 574.453125 -374.1875 C 574.585938 -389.414062 574.847656 -405.226562 575.234375 -421.625 C 575.628906 -438.019531 576.019531 -454.738281 576.40625 -471.78125 C 576.800781 -488.832031 577.128906 -505.296875 577.390625 -521.171875 L 584.421875 -521.171875 C 578.953125 -503.210938 573.09375 -485.125 566.84375 -466.90625 C 560.601562 -448.695312 554.617188 -431.128906 548.890625 -414.203125 C 543.171875 -397.285156 537.769531 -381.929688 532.6875 -368.140625 C 527.613281 -354.347656 523.257812 -342.765625 519.625 -333.390625 L 388.4375 0 L 325.59375 0 L 192.46875 -333.390625 C 188.820312 -342.503906 184.59375 -353.828125 179.78125 -367.359375 C 174.96875 -380.890625 169.628906 -395.984375 163.765625 -412.640625 C 157.910156 -429.304688 151.796875 -446.875 145.421875 -465.34375 C 139.046875 -483.820312 132.601562 -502.429688 126.09375 -521.171875 L 134.296875 -521.171875 C 134.816406 -506.597656 135.269531 -491.046875 135.65625 -474.515625 C 136.050781 -457.992188 136.378906 -441.335938 136.640625 -424.546875 C 136.898438 -407.765625 137.160156 -391.566406 137.421875 -375.953125 C 137.679688 -360.335938 137.8125 -346.148438 137.8125 -333.390625 L 137.8125 0 Z M 67.53125 0 "/></g></g><g transform="translate(833.181331, 1064.963955)"><g><path d="M 248.6875 0 L 108.140625 0 L 108.140625 -64.8125 L 244 -64.8125 C 291.363281 -64.8125 330.660156 -73.921875 361.890625 -92.140625 C 393.128906 -110.359375 416.425781 -136.445312 431.78125 -170.40625 C 447.132812 -204.375 454.8125 -244.910156 454.8125 -292.015625 C 454.8125 -338.597656 447.195312 -378.675781 431.96875 -412.25 C 416.75 -445.832031 394.109375 -471.664062 364.046875 -489.75 C 333.984375 -507.84375 296.3125 -516.890625 251.03125 -516.890625 L 105.015625 -516.890625 L 105.015625 -581.6875 L 256.09375 -581.6875 C 312.832031 -581.6875 361.304688 -570.101562 401.515625 -546.9375 C 441.734375 -523.78125 472.578125 -490.535156 494.046875 -447.203125 C 515.515625 -403.867188 526.25 -352.140625 526.25 -292.015625 C 526.25 -231.367188 515.445312 -179.25 493.84375 -135.65625 C 472.25 -92.0625 440.757812 -58.550781 399.375 -35.125 C 357.988281 -11.707031 307.757812 0 248.6875 0 Z M 140.9375 -581.6875 L 140.9375 0 L 67.53125 0 L 67.53125 -581.6875 Z M 140.9375 -581.6875 "/></g></g></g></svg>